<svg width="278" height="33" viewBox="0 0 278 33" fill="none" xmlns="http://www.w3.org/2000/svg">
<g filter="url(#filter0_d_7_58)">
<path d="M18.12 28.04H17.92H17.36C16.8 28.04 16.12 28.0267 15.32 28H9.24H3.12H1.12H0.56H0.36V27.68V26.8V23.6V14C0.386667 10.48 0.4 7.26667 0.4 4.36V1.2V0.319999V-1.90735e-06H4.44H9.32H15.4H17.44H18H18.2V6H18H17.44H15.4H9.32H8.4C8.4 8.32 8.38667 10.9867 8.36 14V22H9.24H15.36C16.1333 22.0267 16.8 22.04 17.36 22.04H17.92H18.12V28.04ZM29.3766 6C29.3766 8.02667 29.3632 9.76 29.3366 11.2H31.5366V10.92C31.5366 10.5733 31.5232 10.1467 31.4966 9.64V6H30.4966H29.3766ZM39.3766 14.96V15.12V15.52C39.3766 15.92 39.3632 16.4133 39.3366 17V21.48C39.3366 23.1333 39.3232 24.64 39.2966 26V27.48V27.88V28.04L31.2966 28V27.84V27.44V25.96C31.3232 24.6 31.3366 23.0933 31.3366 21.44V17.2H29.3366V23.64V26.8V27.68V28H21.3366V27.68V26.76V23.6V14C21.3632 10.5067 21.3766 7.29333 21.3766 4.36V1.2V0.319999V-1.90735e-06H29.3766H30.4566H36.6966H37.2566H39.4966H39.5366V6H39.4966V9.6C39.5232 10.1067 39.5366 10.5467 39.5366 10.92V11.28V11.4H36.8566V12.64V13.2V13.4H34.2166L34.1766 14.92L39.3766 14.96ZM56.9038 8.32V6H53.3838V7.4V8.12V8.36H53.5838C53.8238 8.36 54.1038 8.34667 54.4238 8.32H56.9038ZM46.5438 8.28C46.8638 8.28 47.1838 8.29333 47.5038 8.32H49.4638C49.7038 8.32 49.9171 8.33333 50.1038 8.36H50.2238V8.08V7.36V6C48.8104 6 47.5704 6.01333 46.5038 6.04C46.5038 7.10667 46.5171 7.85333 46.5438 8.28ZM50.3038 10.52H50.0638C49.9038 10.4933 49.6904 10.48 49.4238 10.48H48.6638V10.52V11.04C48.6638 11.5467 48.6771 12.16 48.7038 12.88V15.76H50.2238V14.36V13.64V13.36H53.3838V13.64V14.36V15.76H54.9438V12.48V10.64V10.48H54.4238C54.1038 10.5067 53.8371 10.52 53.6238 10.52H53.3038V8.4L50.3438 8.36L50.3038 10.52ZM60.7038 -1.90735e-06V0.199998V0.759998C60.6771 1.29333 60.6638 1.94667 60.6638 2.72V8.64C60.6371 10.8 60.6238 12.7867 60.6238 14.6V15.76H60.6638V15.88V16.28V17.68V21.88V26.08V27.48V27.88V28L52.6638 28.04V27.88V27.48V26.12V21.88V19.76H50.9438V21.88C50.9438 23.4267 50.9304 24.84 50.9038 26.12V27.48V27.88V28.04L46.5438 28V28.04H42.7838V27.72V26.84V23.68V14.04C42.7838 10.52 42.7704 7.30667 42.7438 4.4V1.24V0.319999V0.0399976L46.5038 -1.90735e-06V0.0399976C47.8638 0.0133313 49.6371 -1.90735e-06 51.8238 -1.90735e-06H56.9438H59.1838H59.8638H60.4238H60.6238H60.7038ZM81.6366 17.04H81.4366H80.8766H78.9166H72.9566H71.9166V23.6V26.8V27.68V28H63.9166V27.68V26.8V23.6V14V6V-1.90735e-06H64.1166H64.6766H66.6766H72.7966H78.8766H80.9166H81.4766H81.6766V6H81.4766H80.9166H78.8766H72.7966H71.9166V11.04H72.9566H78.9166H80.8766H81.4366H81.5966L81.6366 17.04ZM102.853 6H102.653H102.093H100.093H97.8931V14.08C97.8931 17.5467 97.8798 20.7333 97.8531 23.64V26.84V27.72V28H89.8531V27.68V26.8V23.64C89.8798 20.7333 89.8931 17.5333 89.8931 14.04V6C89.7598 6 89.4665 6.01333 89.0131 6.04C88.5865 6.04 88.2131 6.04 87.8931 6.04H85.8531H85.2931H85.0931V0.0399976H85.2931H85.8531H87.8531C89.7198 0.0133313 91.7598 -1.90735e-06 93.9731 -1.90735e-06H100.093H102.093H102.653H102.853V6ZM114.664 -1.90735e-06V0.319999V1.2V4.4C114.664 7.30667 114.651 10.52 114.624 14.04V23.68V26.84V27.76V28.08L106.624 28.04V27.72V26.84V23.68V14C106.651 10.5067 106.664 7.29333 106.664 4.36V1.2V0.319999V-1.90735e-06H114.664ZM125.861 -1.90735e-06V0.319999V1.2V4.36V5.84H128.541V6.2V7.16V10.08C128.541 10.24 128.528 10.4267 128.501 10.64C128.501 10.8533 128.501 10.9867 128.501 11.04H130.621V4.36C130.648 3.13333 130.661 2.08 130.661 1.2V0.319999V-1.90735e-06H138.661V0.319999V1.2C138.661 2.08 138.648 3.14667 138.621 4.4V14.04C138.621 17.5333 138.608 20.7333 138.581 23.64V26.84V27.72V28.04L130.581 28V27.72V26.8V23.64C130.581 22.92 130.581 22.1333 130.581 21.28C130.608 20.4 130.621 19.8267 130.621 19.56H127.861V19.2V18.2V15.28V14.36H125.821V23.64V26.8V27.68V28H117.821V27.68V26.76V23.6V14C117.848 10.48 117.861 7.26667 117.861 4.36V1.2V0.319999V-1.90735e-06H125.861ZM159.606 6H159.406H158.846H156.806H150.686H149.806C149.806 8.34667 149.793 11.0267 149.766 14.04V22H150.726H151.766V21.44C151.766 19.8133 151.78 18.32 151.806 16.96V15.48V15.08V14.92L159.806 14.96V15.08V15.52V17C159.78 18.36 159.766 19.8533 159.766 21.48V25.96V27.44V27.88V28H154.966H150.726H149.766H141.766V27.68V26.8V23.64V22V14L141.806 6V-1.90735e-06H142.006H142.566H144.566H150.686H156.806H158.846H159.406H159.606V6ZM192.97 6H192.77H192.21H190.21H188.01V14.08C188.01 17.5467 187.997 20.7333 187.97 23.64V26.84V27.72V28H179.97V27.68V26.8V23.64C179.997 20.7333 180.01 17.5333 180.01 14.04V6C179.877 6 179.584 6.01333 179.13 6.04C178.704 6.04 178.33 6.04 178.01 6.04H175.97H175.41H175.21V0.0399976H175.41H175.97H177.97C179.837 0.0133313 181.877 -1.90735e-06 184.09 -1.90735e-06H190.21H192.21H192.77H192.97V6ZM210.341 8.32V6H206.821V7.4V8.12V8.36H207.021C207.261 8.36 207.541 8.34667 207.861 8.32H210.341ZM199.981 8.28C200.301 8.28 200.621 8.29333 200.941 8.32H202.901C203.141 8.32 203.355 8.33333 203.541 8.36H203.661V8.08V7.36V6C202.248 6 201.008 6.01333 199.941 6.04C199.941 7.10667 199.955 7.85333 199.981 8.28ZM203.741 10.52H203.501C203.341 10.4933 203.128 10.48 202.861 10.48H202.101V10.52V11.04C202.101 11.5467 202.115 12.16 202.141 12.88V15.76H203.661V14.36V13.64V13.36H206.821V13.64V14.36V15.76H208.381V12.48V10.64V10.48H207.861C207.541 10.5067 207.275 10.52 207.061 10.52H206.741V8.4L203.781 8.36L203.741 10.52ZM214.141 -1.90735e-06V0.199998V0.759998C214.115 1.29333 214.101 1.94667 214.101 2.72V8.64C214.075 10.8 214.061 12.7867 214.061 14.6V15.76H214.101V15.88V16.28V17.68V21.88V26.08V27.48V27.88V28L206.101 28.04V27.88V27.48V26.12V21.88V19.76H204.381V21.88C204.381 23.4267 204.368 24.84 204.341 26.12V27.48V27.88V28.04L199.981 28V28.04H196.221V27.72V26.84V23.68V14.04C196.221 10.52 196.208 7.30667 196.181 4.4V1.24V0.319999V0.0399976L199.941 -1.90735e-06V0.0399976C201.301 0.0133313 203.075 -1.90735e-06 205.261 -1.90735e-06H210.381H212.621H213.301H213.861H214.061H214.141ZM225.274 11.12H227.474V10.92V9.64C227.447 8.52 227.434 7.30667 227.434 6C226.981 6 226.607 6.01333 226.314 6.04H225.314C225.314 8.01333 225.301 9.70667 225.274 11.12ZM227.354 22V21.68V17.36V17.12H225.274V22H226.194H227.354ZM235.354 15.4V15.56V15.96V17.36V21.72V26.04V27.48V27.88V28H235.114H234.914H234.354H232.314H226.194H220.074H218.074H217.514H217.314H217.274V27.68V26.76V23.6V14C217.301 10.5067 217.314 7.29333 217.314 4.36V1.2V0.319999V-1.90735e-06C220.141 -1.90735e-06 222.261 0.0133313 223.674 0.0399976H226.314C226.607 0.0133313 226.981 -1.90735e-06 227.434 -1.90735e-06H235.434V0.119999V0.479999V1.8V5.72C235.434 7.13333 235.447 8.42667 235.474 9.6V10.92V11.28V11.4H232.794V12.64V13.2V13.4H229.994V15.4H235.354ZM256.362 28.04H256.162H255.602C255.042 28.04 254.362 28.0267 253.562 28H247.482H241.362H239.362H238.802H238.602V27.68V26.8V24.04V22V14C238.629 10.5067 238.642 7.30667 238.642 4.4V1.24V0.359998V0.0399976H246.642V0.359998V1.24V4.44C246.642 7.34667 246.629 10.5467 246.602 14.04V22H247.482H253.602C254.376 22.0267 255.042 22.04 255.602 22.04H256.162H256.362V28.04ZM277.301 17.04H277.101H276.541H274.581H268.621H267.581V22H268.501H274.541C275.314 22.0267 275.967 22.04 276.501 22.04H277.061H277.261V28.04H277.061H276.501C275.941 28.04 275.274 28.0267 274.501 28H268.501H262.501H260.501H259.941H259.741H259.581V27.68V26.8V23.6V14V6V-1.90735e-06H259.781H260.341H262.341H268.461H274.541H276.581H277.141H277.341V6H277.141H276.581H274.541H268.461H267.581V11.04H268.621H274.581H276.541H277.101H277.261L277.301 17.04Z" fill="black"/>
</g>
<defs>
<filter id="filter0_d_7_58" x="0.360001" y="0" width="276.981" height="32.0801" filterUnits="userSpaceOnUse" color-interpolation-filters="sRGB">
<feFlood flood-opacity="0" result="BackgroundImageFix"/>
<feColorMatrix in="SourceAlpha" type="matrix" values="0 0 0 0 0 0 0 0 0 0 0 0 0 0 0 0 0 0 127 0" result="hardAlpha"/>
<feOffset dy="4"/>
<feComposite in2="hardAlpha" operator="out"/>
<feColorMatrix type="matrix" values="0 0 0 0 1 0 0 0 0 1 0 0 0 0 1 0 0 0 1 0"/>
<feBlend mode="normal" in2="BackgroundImageFix" result="effect1_dropShadow_7_58"/>
<feBlend mode="normal" in="SourceGraphic" in2="effect1_dropShadow_7_58" result="shape"/>
</filter>
</defs>
</svg>
